# xmcd CD database file
#
# Track frame offsets:
#	183
#	12900
#	31893
#	65030
#	82155
#	96420
#	121973
#	134210
#	164593
#	190080
#	213063
#	234380
#
# Disc length: 3405 seconds
#
# Revision: 0
# Processed by: cddbd v1.5.1PL0 Copyright (c) Steve Scherf et al.
# Submitted via: CDex 1.51
#
DISCID=aa0d4b0c
DTITLE=Daniel Blanchet - Harmonices Mundi
DYEAR=1991
DGENRE=New Age
TTITLE0=Harmonices Mundi mvt I
TTITLE1=Huang Shan
TTITLE2=Alpha
TTITLE3=Ellievel
TTITLE4=Icarus's Dream I
TTITLE5=Solar Winds
TTITLE6=Slow Waltz
TTITLE7=Nebula IC
TTITLE8=Harmonices Mundi mvt II
TTITLE9=Harmonices Mundi mvt III
TTITLE10=Quanta
TTITLE11=Icarus's Dream II
EXTD=YEAR: 1991
EXTT0=
EXTT1=
EXTT2=
EXTT3=
EXTT4=
EXTT5=
EXTT6=
EXTT7=
EXTT8=
EXTT9=
EXTT10=
EXTT11=
PLAYORDER=
